<svg id="visual" viewBox="0 0 900 600" width="900" height="600" xmlns="http://www.w3.org/2000/svg" xmlns:xlink="http://www.w3.org/1999/xlink" version="1.1"><rect x="0" y="0" width="900" height="600" fill="#0d1321"></rect><path d="M0 123L37.5 139.2C75 155.3 150 187.7 225 189.3C300 191 375 162 450 144.7C525 127.3 600 121.7 675 133.8C750 146 825 176 862.5 191L900 206L900 0L862.5 0C825 0 750 0 675 0C600 0 525 0 450 0C375 0 300 0 225 0C150 0 75 0 37.5 0L0 0Z" fill="#3e5c76"></path><path d="M0 151L37.5 150C75 149 150 147 225 145.5C300 144 375 143 450 153.7C525 164.3 600 186.7 675 190.7C750 194.7 825 180.3 862.5 173.2L900 166L900 0L862.5 0C825 0 750 0 675 0C600 0 525 0 450 0C375 0 300 0 225 0C150 0 75 0 37.5 0L0 0Z" fill="#293e57"></path><path d="M0 78L37.5 87C75 96 150 114 225 116.8C300 119.7 375 107.3 450 116C525 124.7 600 154.3 675 157.8C750 161.3 825 138.7 862.5 127.3L900 116L900 0L862.5 0C825 0 750 0 675 0C600 0 525 0 450 0C375 0 300 0 225 0C150 0 75 0 37.5 0L0 0Z" fill="#1d2d44"></path><path d="M0 114L37.5 109.5C75 105 150 96 225 92.7C300 89.3 375 91.7 450 86.3C525 81 600 68 675 63.3C750 58.7 825 62.3 862.5 64.2L900 66L900 0L862.5 0C825 0 750 0 675 0C600 0 525 0 450 0C375 0 300 0 225 0C150 0 75 0 37.5 0L0 0Z" fill="#293e57"></path><path d="M0 89L37.5 79.3C75 69.7 150 50.3 225 43.7C300 37 375 43 450 48.5C525 54 600 59 675 58.3C750 57.7 825 51.3 862.5 48.2L900 45L900 0L862.5 0C825 0 750 0 675 0C600 0 525 0 450 0C375 0 300 0 225 0C150 0 75 0 37.5 0L0 0Z" fill="#3e5c76"></path></svg>