<svg id="visual" viewBox="0 0 1920 200" width="1920" height="200" xmlns="http://www.w3.org/2000/svg" xmlns:xlink="http://www.w3.org/1999/xlink" version="1.1"><rect x="0" y="0" width="1920" height="200" fill="#0d1321"></rect><path d="M0 76L21.3 85C42.7 94 85.3 112 128 122C170.7 132 213.3 134 256 128.7C298.7 123.3 341.3 110.7 384 109.3C426.7 108 469.3 118 512 123.3C554.7 128.7 597.3 129.3 640 129.8C682.7 130.3 725.3 130.7 768 125.5C810.7 120.3 853.3 109.7 896 109C938.7 108.3 981.3 117.7 1024 117.7C1066.7 117.7 1109.3 108.3 1152 101C1194.7 93.7 1237.3 88.3 1280 97.3C1322.7 106.3 1365.3 129.7 1408 139C1450.7 148.3 1493.3 143.7 1536 135.3C1578.7 127 1621.3 115 1664 112.2C1706.7 109.3 1749.3 115.7 1792 114.7C1834.7 113.7 1877.3 105.3 1898.7 101.2L1920 97L1920 0L1898.7 0C1877.3 0 1834.7 0 1792 0C1749.3 0 1706.7 0 1664 0C1621.3 0 1578.7 0 1536 0C1493.3 0 1450.7 0 1408 0C1365.3 0 1322.7 0 1280 0C1237.3 0 1194.7 0 1152 0C1109.3 0 1066.7 0 1024 0C981.3 0 938.7 0 896 0C853.3 0 810.7 0 768 0C725.3 0 682.7 0 640 0C597.3 0 554.7 0 512 0C469.3 0 426.7 0 384 0C341.3 0 298.7 0 256 0C213.3 0 170.7 0 128 0C85.3 0 42.7 0 21.3 0L0 0Z" fill="#1d2d44"></path><path d="M0 100L21.3 96.7C42.7 93.3 85.3 86.7 128 88.3C170.7 90 213.3 100 256 95.7C298.7 91.3 341.3 72.7 384 72.7C426.7 72.7 469.3 91.3 512 101.2C554.7 111 597.3 112 640 102.2C682.7 92.3 725.3 71.7 768 68.2C810.7 64.7 853.3 78.3 896 88.2C938.7 98 981.3 104 1024 97C1066.7 90 1109.3 70 1152 69.7C1194.7 69.3 1237.3 88.7 1280 96.8C1322.7 105 1365.3 102 1408 96C1450.7 90 1493.3 81 1536 74.8C1578.7 68.7 1621.3 65.3 1664 67.5C1706.7 69.7 1749.3 77.3 1792 77.7C1834.7 78 1877.3 71 1898.7 67.5L1920 64L1920 0L1898.7 0C1877.3 0 1834.7 0 1792 0C1749.3 0 1706.7 0 1664 0C1621.3 0 1578.7 0 1536 0C1493.3 0 1450.7 0 1408 0C1365.3 0 1322.7 0 1280 0C1237.3 0 1194.7 0 1152 0C1109.3 0 1066.7 0 1024 0C981.3 0 938.7 0 896 0C853.3 0 810.7 0 768 0C725.3 0 682.7 0 640 0C597.3 0 554.7 0 512 0C469.3 0 426.7 0 384 0C341.3 0 298.7 0 256 0C213.3 0 170.7 0 128 0C85.3 0 42.7 0 21.3 0L0 0Z" fill="#3e5c76"></path><path d="M0 35L21.3 40C42.7 45 85.3 55 128 58.8C170.7 62.7 213.3 60.3 256 55.5C298.7 50.7 341.3 43.3 384 38C426.7 32.7 469.3 29.3 512 28.5C554.7 27.7 597.3 29.3 640 35.7C682.7 42 725.3 53 768 58.3C810.7 63.7 853.3 63.3 896 57.5C938.7 51.7 981.3 40.3 1024 39.3C1066.7 38.3 1109.3 47.7 1152 54.2C1194.7 60.7 1237.3 64.3 1280 67C1322.7 69.7 1365.3 71.3 1408 65.7C1450.7 60 1493.3 47 1536 41.2C1578.7 35.3 1621.3 36.7 1664 42.7C1706.7 48.7 1749.3 59.3 1792 63.8C1834.7 68.3 1877.3 66.7 1898.7 65.8L1920 65L1920 0L1898.7 0C1877.3 0 1834.7 0 1792 0C1749.3 0 1706.7 0 1664 0C1621.3 0 1578.7 0 1536 0C1493.3 0 1450.7 0 1408 0C1365.3 0 1322.7 0 1280 0C1237.3 0 1194.7 0 1152 0C1109.3 0 1066.7 0 1024 0C981.3 0 938.7 0 896 0C853.3 0 810.7 0 768 0C725.3 0 682.7 0 640 0C597.3 0 554.7 0 512 0C469.3 0 426.7 0 384 0C341.3 0 298.7 0 256 0C213.3 0 170.7 0 128 0C85.3 0 42.7 0 21.3 0L0 0Z" fill="#1d2d44"></path></svg>