<svg id="visual" viewBox="0 0 960 540" width="960" height="540" xmlns="http://www.w3.org/2000/svg" xmlns:xlink="http://www.w3.org/1999/xlink" version="1.1"><rect x="0" y="0" width="960" height="540" fill="#0d1321"></rect><path d="M0 160L22.8 157C45.7 154 91.3 148 137 149.8C182.7 151.7 228.3 161.3 274 162.5C319.7 163.7 365.3 156.3 411.2 153C457 149.7 503 150.3 548.8 160.8C594.7 171.3 640.3 191.7 686 194C731.7 196.3 777.3 180.7 823 174.8C868.7 169 914.3 173 937.2 175L960 177L960 0L937.2 0C914.3 0 868.7 0 823 0C777.3 0 731.7 0 686 0C640.3 0 594.7 0 548.8 0C503 0 457 0 411.2 0C365.3 0 319.7 0 274 0C228.3 0 182.7 0 137 0C91.3 0 45.7 0 22.8 0L0 0Z" fill="#3e5c76"></path><path d="M0 117L22.8 120.3C45.7 123.7 91.3 130.3 137 139.2C182.7 148 228.3 159 274 155.8C319.7 152.7 365.3 135.3 411.2 134C457 132.7 503 147.3 548.8 149.8C594.7 152.3 640.3 142.7 686 134.5C731.7 126.3 777.3 119.7 823 119C868.7 118.3 914.3 123.7 937.2 126.3L960 129L960 0L937.2 0C914.3 0 868.7 0 823 0C777.3 0 731.7 0 686 0C640.3 0 594.7 0 548.8 0C503 0 457 0 411.2 0C365.3 0 319.7 0 274 0C228.3 0 182.7 0 137 0C91.3 0 45.7 0 22.8 0L0 0Z" fill="#355069"></path><path d="M0 103L22.8 106.3C45.7 109.7 91.3 116.3 137 116C182.7 115.7 228.3 108.3 274 110.5C319.7 112.7 365.3 124.3 411.2 122.2C457 120 503 104 548.8 105C594.7 106 640.3 124 686 123.7C731.7 123.3 777.3 104.7 823 103.8C868.7 103 914.3 120 937.2 128.5L960 137L960 0L937.2 0C914.3 0 868.7 0 823 0C777.3 0 731.7 0 686 0C640.3 0 594.7 0 548.8 0C503 0 457 0 411.2 0C365.3 0 319.7 0 274 0C228.3 0 182.7 0 137 0C91.3 0 45.7 0 22.8 0L0 0Z" fill="#2d445d"></path><path d="M0 54L22.8 60.7C45.7 67.3 91.3 80.7 137 85.5C182.7 90.3 228.3 86.7 274 80.7C319.7 74.7 365.3 66.3 411.2 63C457 59.7 503 61.3 548.8 65.2C594.7 69 640.3 75 686 80.2C731.7 85.3 777.3 89.7 823 87.3C868.7 85 914.3 76 937.2 71.5L960 67L960 0L937.2 0C914.3 0 868.7 0 823 0C777.3 0 731.7 0 686 0C640.3 0 594.7 0 548.8 0C503 0 457 0 411.2 0C365.3 0 319.7 0 274 0C228.3 0 182.7 0 137 0C91.3 0 45.7 0 22.8 0L0 0Z" fill="#253850"></path><path d="M0 43L22.8 41C45.7 39 91.3 35 137 35.7C182.7 36.3 228.3 41.7 274 42.2C319.7 42.7 365.3 38.3 411.2 38.5C457 38.7 503 43.3 548.8 42.5C594.7 41.7 640.3 35.3 686 37.2C731.7 39 777.3 49 823 51.3C868.7 53.7 914.3 48.3 937.2 45.7L960 43L960 0L937.2 0C914.3 0 868.7 0 823 0C777.3 0 731.7 0 686 0C640.3 0 594.7 0 548.8 0C503 0 457 0 411.2 0C365.3 0 319.7 0 274 0C228.3 0 182.7 0 137 0C91.3 0 45.7 0 22.8 0L0 0Z" fill="#1d2d44"></path></svg>