<svg id="visual" viewBox="0 0 1920 200" width="1920" height="200" xmlns="http://www.w3.org/2000/svg" xmlns:xlink="http://www.w3.org/1999/xlink" version="1.1"><path d="M0 33L22.8 41C45.7 49 91.3 65 137 64C182.7 63 228.3 45 274 38.3C319.7 31.7 365.3 36.3 411.2 43C457 49.7 503 58.3 548.8 57.7C594.7 57 640.3 47 686 45.3C731.7 43.7 777.3 50.3 823 48.7C868.7 47 914.3 37 960 34C1005.7 31 1051.3 35 1097 44.3C1142.7 53.7 1188.3 68.3 1234 79C1279.7 89.7 1325.3 96.3 1371.2 97C1417 97.7 1463 92.3 1508.8 95.7C1554.7 99 1600.3 111 1646 113.7C1691.7 116.3 1737.3 109.7 1783 102C1828.7 94.3 1874.3 85.7 1897.2 81.3L1920 77L1920 0L1897.2 0C1874.3 0 1828.7 0 1783 0C1737.3 0 1691.7 0 1646 0C1600.3 0 1554.7 0 1508.8 0C1463 0 1417 0 1371.2 0C1325.3 0 1279.7 0 1234 0C1188.3 0 1142.7 0 1097 0C1051.3 0 1005.7 0 960 0C914.3 0 868.7 0 823 0C777.3 0 731.7 0 686 0C640.3 0 594.7 0 548.8 0C503 0 457 0 411.2 0C365.3 0 319.7 0 274 0C228.3 0 182.7 0 137 0C91.3 0 45.7 0 22.8 0L0 0Z" fill="#1d2d44"></path><path d="M0 77L22.8 85.7C45.7 94.3 91.3 111.7 137 112.3C182.7 113 228.3 97 274 98C319.7 99 365.3 117 411.2 121.7C457 126.3 503 117.7 548.8 118.3C594.7 119 640.3 129 686 125.7C731.7 122.3 777.3 105.7 823 98C868.7 90.3 914.3 91.7 960 98.7C1005.7 105.7 1051.3 118.3 1097 126C1142.7 133.7 1188.3 136.3 1234 135.7C1279.7 135 1325.3 131 1371.2 129.7C1417 128.3 1463 129.7 1508.8 134.7C1554.7 139.7 1600.3 148.3 1646 147C1691.7 145.7 1737.3 134.3 1783 126.7C1828.7 119 1874.3 115 1897.2 113L1920 111L1920 75L1897.2 79.3C1874.3 83.7 1828.7 92.3 1783 100C1737.3 107.7 1691.7 114.3 1646 111.7C1600.3 109 1554.7 97 1508.8 93.7C1463 90.3 1417 95.7 1371.2 95C1325.3 94.3 1279.7 87.7 1234 77C1188.3 66.3 1142.7 51.7 1097 42.3C1051.3 33 1005.7 29 960 32C914.3 35 868.7 45 823 46.7C777.3 48.3 731.7 41.7 686 43.3C640.3 45 594.7 55 548.8 55.7C503 56.3 457 47.7 411.2 41C365.3 34.3 319.7 29.7 274 36.3C228.3 43 182.7 61 137 62C91.3 63 45.7 47 22.8 39L0 31Z" fill="#131d2e"></path><path d="M0 107L22.8 112C45.7 117 91.3 127 137 128.7C182.7 130.3 228.3 123.7 274 125.7C319.7 127.7 365.3 138.3 411.2 141C457 143.7 503 138.3 548.8 138C594.7 137.7 640.3 142.3 686 137.3C731.7 132.3 777.3 117.7 823 113C868.7 108.3 914.3 113.7 960 124.7C1005.7 135.7 1051.3 152.3 1097 156.7C1142.7 161 1188.3 153 1234 147C1279.7 141 1325.3 137 1371.2 138C1417 139 1463 145 1508.8 150.3C1554.7 155.7 1600.3 160.3 1646 158.7C1691.7 157 1737.3 149 1783 144.7C1828.7 140.3 1874.3 139.7 1897.2 139.3L1920 139L1920 109L1897.2 111C1874.3 113 1828.7 117 1783 124.7C1737.3 132.3 1691.7 143.7 1646 145C1600.3 146.3 1554.7 137.7 1508.8 132.7C1463 127.7 1417 126.3 1371.2 127.7C1325.3 129 1279.7 133 1234 133.7C1188.3 134.3 1142.7 131.7 1097 124C1051.3 116.3 1005.7 103.7 960 96.7C914.3 89.7 868.7 88.3 823 96C777.3 103.7 731.7 120.3 686 123.7C640.3 127 594.7 117 548.8 116.3C503 115.7 457 124.3 411.2 119.7C365.3 115 319.7 97 274 96C228.3 95 182.7 111 137 110.3C91.3 109.7 45.7 92.3 22.8 83.7L0 75Z" fill="#0d1321"></path><path d="M0 157L22.8 156.3C45.7 155.7 91.3 154.3 137 154.7C182.7 155 228.3 157 274 160.3C319.7 163.7 365.3 168.3 411.2 173C457 177.7 503 182.3 548.8 182C594.7 181.7 640.3 176.3 686 171C731.7 165.7 777.3 160.3 823 159C868.7 157.7 914.3 160.3 960 166.7C1005.7 173 1051.3 183 1097 183.7C1142.7 184.3 1188.3 175.7 1234 174.7C1279.7 173.7 1325.3 180.3 1371.2 179.3C1417 178.3 1463 169.7 1508.8 170.7C1554.7 171.7 1600.3 182.3 1646 184.7C1691.7 187 1737.3 181 1783 176.3C1828.7 171.7 1874.3 168.3 1897.2 166.7L1920 165L1920 137L1897.2 137.3C1874.3 137.7 1828.7 138.3 1783 142.7C1737.3 147 1691.7 155 1646 156.7C1600.3 158.3 1554.7 153.7 1508.8 148.3C1463 143 1417 137 1371.2 136C1325.3 135 1279.7 139 1234 145C1188.3 151 1142.7 159 1097 154.7C1051.3 150.3 1005.7 133.7 960 122.7C914.3 111.7 868.7 106.3 823 111C777.3 115.7 731.7 130.3 686 135.3C640.3 140.3 594.7 135.7 548.8 136C503 136.3 457 141.7 411.2 139C365.3 136.3 319.7 125.7 274 123.7C228.3 121.7 182.7 128.3 137 126.7C91.3 125 45.7 115 22.8 110L0 105Z" fill="#131d2e"></path><path d="M0 201L22.8 201C45.7 201 91.3 201 137 201C182.7 201 228.3 201 274 201C319.7 201 365.3 201 411.2 201C457 201 503 201 548.8 201C594.7 201 640.3 201 686 201C731.7 201 777.3 201 823 201C868.7 201 914.3 201 960 201C1005.7 201 1051.3 201 1097 201C1142.7 201 1188.3 201 1234 201C1279.7 201 1325.3 201 1371.2 201C1417 201 1463 201 1508.8 201C1554.7 201 1600.3 201 1646 201C1691.7 201 1737.3 201 1783 201C1828.7 201 1874.3 201 1897.2 201L1920 201L1920 163L1897.2 164.7C1874.3 166.3 1828.7 169.7 1783 174.3C1737.3 179 1691.7 185 1646 182.7C1600.3 180.3 1554.7 169.7 1508.8 168.7C1463 167.7 1417 176.3 1371.2 177.3C1325.3 178.3 1279.7 171.7 1234 172.7C1188.3 173.7 1142.7 182.3 1097 181.7C1051.3 181 1005.7 171 960 164.7C914.3 158.3 868.7 155.7 823 157C777.3 158.3 731.7 163.7 686 169C640.3 174.3 594.7 179.7 548.8 180C503 180.3 457 175.7 411.2 171C365.3 166.3 319.7 161.7 274 158.3C228.3 155 182.7 153 137 152.7C91.3 152.3 45.7 153.7 22.8 154.3L0 155Z" fill="#1d2d44"></path></svg>