<svg id="visual" viewBox="0 0 900 450" width="900" height="450" xmlns="http://www.w3.org/2000/svg" xmlns:xlink="http://www.w3.org/1999/xlink" version="1.1"><path d="M0 73L13.7 67.8C27.3 62.7 54.7 52.3 82 48.7C109.3 45 136.7 48 163.8 48.7C191 49.3 218 47.7 245.2 52.8C272.3 58 299.7 70 327 70.8C354.3 71.7 381.7 61.3 409 58.3C436.3 55.3 463.7 59.7 491 58.2C518.3 56.7 545.7 49.3 573 47.8C600.3 46.3 627.7 50.7 654.8 52.8C682 55 709 55 736.2 51.3C763.3 47.7 790.7 40.3 818 36.7C845.3 33 872.7 33 886.3 33L900 33L900 0L886.3 0C872.7 0 845.3 0 818 0C790.7 0 763.3 0 736.2 0C709 0 682 0 654.8 0C627.7 0 600.3 0 573 0C545.7 0 518.3 0 491 0C463.7 0 436.3 0 409 0C381.7 0 354.3 0 327 0C299.7 0 272.3 0 245.2 0C218 0 191 0 163.8 0C136.7 0 109.3 0 82 0C54.7 0 27.3 0 13.7 0L0 0Z" fill="#1d2d44"></path><path d="M0 136L13.7 133.8C27.3 131.7 54.7 127.3 82 120.7C109.3 114 136.7 105 163.8 99C191 93 218 90 245.2 106.5C272.3 123 299.7 159 327 159.7C354.3 160.3 381.7 125.7 409 111.3C436.3 97 463.7 103 491 103C518.3 103 545.7 97 573 96.3C600.3 95.7 627.7 100.3 654.8 110.8C682 121.3 709 137.7 736.2 133.2C763.3 128.7 790.7 103.3 818 94.3C845.3 85.3 872.7 92.7 886.3 96.3L900 100L900 31L886.3 31C872.7 31 845.3 31 818 34.7C790.7 38.3 763.3 45.7 736.2 49.3C709 53 682 53 654.8 50.8C627.7 48.7 600.3 44.3 573 45.8C545.7 47.3 518.3 54.7 491 56.2C463.7 57.7 436.3 53.3 409 56.3C381.7 59.3 354.3 69.7 327 68.8C299.7 68 272.3 56 245.2 50.8C218 45.7 191 47.3 163.8 46.7C136.7 46 109.3 43 82 46.7C54.7 50.3 27.3 60.7 13.7 65.8L0 71Z" fill="#314a63"></path><path d="M0 258L13.7 249C27.3 240 54.7 222 82 210.7C109.3 199.3 136.7 194.7 163.8 203.7C191 212.7 218 235.3 245.2 246.7C272.3 258 299.7 258 327 255.7C354.3 253.3 381.7 248.7 409 251.7C436.3 254.7 463.7 265.3 491 263.2C518.3 261 545.7 246 573 250.5C600.3 255 627.7 279 654.8 291C682 303 709 303 736.2 303.7C763.3 304.3 790.7 305.7 818 308.7C845.3 311.7 872.7 316.3 886.3 318.7L900 321L900 98L886.3 94.3C872.7 90.7 845.3 83.3 818 92.3C790.7 101.3 763.3 126.7 736.2 131.2C709 135.7 682 119.3 654.8 108.8C627.7 98.3 600.3 93.7 573 94.3C545.7 95 518.3 101 491 101C463.7 101 436.3 95 409 109.3C381.7 123.7 354.3 158.3 327 157.7C299.7 157 272.3 121 245.2 104.5C218 88 191 91 163.8 97C136.7 103 109.3 112 82 118.7C54.7 125.3 27.3 129.7 13.7 131.8L0 134Z" fill="#3e5c76"></path><path d="M0 334L13.7 318.3C27.3 302.7 54.7 271.3 82 260.2C109.3 249 136.7 258 163.8 270C191 282 218 297 245.2 300C272.3 303 299.7 294 327 291C354.3 288 381.7 291 409 294C436.3 297 463.7 300 491 301.5C518.3 303 545.7 303 573 312C600.3 321 627.7 339 654.8 348.7C682 358.3 709 359.7 736.2 357.3C763.3 355 790.7 349 818 350.5C845.3 352 872.7 361 886.3 365.5L900 370L900 319L886.3 316.7C872.7 314.3 845.3 309.7 818 306.7C790.7 303.7 763.3 302.3 736.2 301.7C709 301 682 301 654.8 289C627.7 277 600.3 253 573 248.5C545.7 244 518.3 259 491 261.2C463.7 263.3 436.3 252.7 409 249.7C381.7 246.7 354.3 251.3 327 253.7C299.7 256 272.3 256 245.2 244.7C218 233.3 191 210.7 163.8 201.7C136.7 192.7 109.3 197.3 82 208.7C54.7 220 27.3 238 13.7 247L0 256Z" fill="#314a63"></path><path d="M0 451L13.7 451C27.3 451 54.7 451 82 451C109.3 451 136.7 451 163.8 451C191 451 218 451 245.2 451C272.3 451 299.7 451 327 451C354.3 451 381.7 451 409 451C436.3 451 463.7 451 491 451C518.3 451 545.7 451 573 451C600.3 451 627.7 451 654.8 451C682 451 709 451 736.2 451C763.3 451 790.7 451 818 451C845.3 451 872.7 451 886.3 451L900 451L900 368L886.3 363.5C872.7 359 845.3 350 818 348.5C790.7 347 763.3 353 736.2 355.3C709 357.7 682 356.3 654.8 346.7C627.7 337 600.3 319 573 310C545.7 301 518.3 301 491 299.5C463.7 298 436.3 295 409 292C381.7 289 354.3 286 327 289C299.7 292 272.3 301 245.2 298C218 295 191 280 163.8 268C136.7 256 109.3 247 82 258.2C54.7 269.3 27.3 300.7 13.7 316.3L0 332Z" fill="#1d2d44"></path></svg>