<svg id="visual" viewBox="0 0 900 600" width="900" height="600" xmlns="http://www.w3.org/2000/svg" xmlns:xlink="http://www.w3.org/1999/xlink" version="1.1"><rect x="0" y="0" width="900" height="600" fill="#0d1321"></rect><path d="M0 239L16.7 223.2C33.3 207.3 66.7 175.7 100 164.2C133.3 152.7 166.7 161.3 200 168.8C233.3 176.3 266.7 182.7 300 196.3C333.3 210 366.7 231 400 225.7C433.3 220.3 466.7 188.7 500 180.2C533.3 171.7 566.7 186.3 600 187.5C633.3 188.7 666.7 176.3 700 168.5C733.3 160.7 766.7 157.3 800 172.5C833.3 187.7 866.7 221.3 883.3 238.2L900 255L900 0L883.3 0C866.7 0 833.3 0 800 0C766.7 0 733.3 0 700 0C666.7 0 633.3 0 600 0C566.7 0 533.3 0 500 0C466.7 0 433.3 0 400 0C366.7 0 333.3 0 300 0C266.7 0 233.3 0 200 0C166.7 0 133.3 0 100 0C66.7 0 33.3 0 16.7 0L0 0Z" fill="#3e5c76"></path><path d="M0 200L16.7 188.3C33.3 176.7 66.7 153.3 100 146.7C133.3 140 166.7 150 200 158.8C233.3 167.7 266.7 175.3 300 168.5C333.3 161.7 366.7 140.3 400 144C433.3 147.7 466.7 176.3 500 188.7C533.3 201 566.7 197 600 198.7C633.3 200.3 666.7 207.7 700 206.5C733.3 205.3 766.7 195.7 800 182.3C833.3 169 866.7 152 883.3 143.5L900 135L900 0L883.3 0C866.7 0 833.3 0 800 0C766.7 0 733.3 0 700 0C666.7 0 633.3 0 600 0C566.7 0 533.3 0 500 0C466.7 0 433.3 0 400 0C366.7 0 333.3 0 300 0C266.7 0 233.3 0 200 0C166.7 0 133.3 0 100 0C66.7 0 33.3 0 16.7 0L0 0Z" fill="#37526c"></path><path d="M0 105L16.7 105.2C33.3 105.3 66.7 105.7 100 115C133.3 124.3 166.7 142.7 200 149.7C233.3 156.7 266.7 152.3 300 139.5C333.3 126.7 366.7 105.3 400 102.3C433.3 99.3 466.7 114.7 500 127.5C533.3 140.3 566.7 150.7 600 148.8C633.3 147 666.7 133 700 134.5C733.3 136 766.7 153 800 153.5C833.3 154 866.7 138 883.3 130L900 122L900 0L883.3 0C866.7 0 833.3 0 800 0C766.7 0 733.3 0 700 0C666.7 0 633.3 0 600 0C566.7 0 533.3 0 500 0C466.7 0 433.3 0 400 0C366.7 0 333.3 0 300 0C266.7 0 233.3 0 200 0C166.7 0 133.3 0 100 0C66.7 0 33.3 0 16.7 0L0 0Z" fill="#304962"></path><path d="M0 65L16.7 66.2C33.3 67.3 66.7 69.7 100 81.8C133.3 94 166.7 116 200 124.7C233.3 133.3 266.7 128.7 300 128.2C333.3 127.7 366.7 131.3 400 123.8C433.3 116.3 466.7 97.7 500 86.3C533.3 75 566.7 71 600 70.8C633.3 70.7 666.7 74.3 700 81C733.3 87.7 766.7 97.3 800 100.3C833.3 103.3 866.7 99.7 883.3 97.8L900 96L900 0L883.3 0C866.7 0 833.3 0 800 0C766.7 0 733.3 0 700 0C666.7 0 633.3 0 600 0C566.7 0 533.3 0 500 0C466.7 0 433.3 0 400 0C366.7 0 333.3 0 300 0C266.7 0 233.3 0 200 0C166.7 0 133.3 0 100 0C66.7 0 33.3 0 16.7 0L0 0Z" fill="#2a3f58"></path><path d="M0 82L16.7 78.3C33.3 74.7 66.7 67.3 100 66C133.3 64.7 166.7 69.3 200 75.5C233.3 81.7 266.7 89.3 300 86C333.3 82.7 366.7 68.3 400 62.7C433.3 57 466.7 60 500 65.2C533.3 70.3 566.7 77.7 600 74.8C633.3 72 666.7 59 700 58.2C733.3 57.3 766.7 68.7 800 71C833.3 73.3 866.7 66.7 883.3 63.3L900 60L900 0L883.3 0C866.7 0 833.3 0 800 0C766.7 0 733.3 0 700 0C666.7 0 633.3 0 600 0C566.7 0 533.3 0 500 0C466.7 0 433.3 0 400 0C366.7 0 333.3 0 300 0C266.7 0 233.3 0 200 0C166.7 0 133.3 0 100 0C66.7 0 33.3 0 16.7 0L0 0Z" fill="#23364e"></path><path d="M0 61L16.7 60C33.3 59 66.7 57 100 54.3C133.3 51.7 166.7 48.3 200 50.2C233.3 52 266.7 59 300 56.3C333.3 53.7 366.7 41.3 400 38.8C433.3 36.3 466.7 43.7 500 48.8C533.3 54 566.7 57 600 56C633.3 55 666.7 50 700 48C733.3 46 766.7 47 800 44C833.3 41 866.7 34 883.3 30.5L900 27L900 0L883.3 0C866.7 0 833.3 0 800 0C766.7 0 733.3 0 700 0C666.7 0 633.3 0 600 0C566.7 0 533.3 0 500 0C466.7 0 433.3 0 400 0C366.7 0 333.3 0 300 0C266.7 0 233.3 0 200 0C166.7 0 133.3 0 100 0C66.7 0 33.3 0 16.7 0L0 0Z" fill="#1d2d44"></path></svg>